<?xml version="1.0" encoding="UTF-8" standalone="no"?>
<!DOCTYPE svg PUBLIC "-//W3C//DTD SVG 1.1//EN"
 "http://www.w3.org/Graphics/SVG/1.1/DTD/svg11.dtd">
<!-- Generated by graphviz version 2.43.0 (0)
 -->
<!-- Title: pprof_1 Pages: 1 -->
<svg width="100%" height="100%" xmlns="http://www.w3.org/2000/svg" xmlns:xlink="http://www.w3.org/1999/xlink">
<script type="text/ecmascript"><![CDATA[
/**
 *  SVGPan library 1.2.2
 * ======================
 *
 * Given an unique existing element with id "viewport" (or when missing, the
 * first g-element), including the library into any SVG adds the following
 * capabilities:
 *
 *  - Mouse panning
 *  - Mouse zooming (using the wheel)
 *  - Object dragging
 *
 * You can configure the behaviour of the pan/zoom/drag with the variables
 * listed in the CONFIGURATION section of this file.
 *
 * Known issues:
 *
 *  - Zooming (while panning) on Safari has still some issues
 *
 * Releases:
 *
 * 1.2.2, Tue Aug 30 17:21:56 CEST 2011, Andrea Leofreddi
 *	- Fixed viewBox on root tag (#7)
 *	- Improved zoom speed (#2)
 *
 * 1.2.1, Mon Jul  4 00:33:18 CEST 2011, Andrea Leofreddi
 *	- Fixed a regression with mouse wheel (now working on Firefox 5)
 *	- Working with viewBox attribute (#4)
 *	- Added "use strict;" and fixed resulting warnings (#5)
 *	- Added configuration variables, dragging is disabled by default (#3)
 *
 * 1.2, Sat Mar 20 08:42:50 GMT 2010, Zeng Xiaohui
 *	Fixed a bug with browser mouse handler interaction
 *
 * 1.1, Wed Feb  3 17:39:33 GMT 2010, Zeng Xiaohui
 *	Updated the zoom code to support the mouse wheel on Safari/Chrome
 *
 * 1.0, Andrea Leofreddi
 *	First release
 *
 * This code is licensed under the following BSD license:
 *
 * Copyright 2009-2017 Andrea Leofreddi <a.leofreddi@vleo.net>. All rights reserved.
 *
 * Redistribution and use in source and binary forms, with or without modification, are
 * permitted provided that the following conditions are met:
 *
 *    1. Redistributions of source code must retain the above copyright
 *       notice, this list of conditions and the following disclaimer.
 *    2. Redistributions in binary form must reproduce the above copyright
 *       notice, this list of conditions and the following disclaimer in the
 *       documentation and/or other materials provided with the distribution.
 *    3. Neither the name of the copyright holder nor the names of its
 *       contributors may be used to endorse or promote products derived from
 *       this software without specific prior written permission.
 *
 * THIS SOFTWARE IS PROVIDED BY COPYRIGHT HOLDERS AND CONTRIBUTORS ''AS IS'' AND ANY EXPRESS
 * OR IMPLIED WARRANTIES, INCLUDING, BUT NOT LIMITED TO, THE IMPLIED WARRANTIES OF MERCHANTABILITY
 * AND FITNESS FOR A PARTICULAR PURPOSE ARE DISCLAIMED. IN NO EVENT SHALL COPYRIGHT HOLDERS OR
 * CONTRIBUTORS BE LIABLE FOR ANY DIRECT, INDIRECT, INCIDENTAL, SPECIAL, EXEMPLARY, OR
 * CONSEQUENTIAL DAMAGES (INCLUDING, BUT NOT LIMITED TO, PROCUREMENT OF SUBSTITUTE GOODS OR
 * SERVICES; LOSS OF USE, DATA, OR PROFITS; OR BUSINESS INTERRUPTION) HOWEVER CAUSED AND ON
 * ANY THEORY OF LIABILITY, WHETHER IN CONTRACT, STRICT LIABILITY, OR TORT (INCLUDING
 * NEGLIGENCE OR OTHERWISE) ARISING IN ANY WAY OUT OF THE USE OF THIS SOFTWARE, EVEN IF
 * ADVISED OF THE POSSIBILITY OF SUCH DAMAGE.
 *
 * The views and conclusions contained in the software and documentation are those of the
 * authors and should not be interpreted as representing official policies, either expressed
 * or implied, of Andrea Leofreddi.
 */

"use strict";

/// CONFIGURATION
/// ====>

var enablePan = 1; // 1 or 0: enable or disable panning (default enabled)
var enableZoom = 1; // 1 or 0: enable or disable zooming (default enabled)
var enableDrag = 0; // 1 or 0: enable or disable dragging (default disabled)
var zoomScale = 0.2; // Zoom sensitivity

/// <====
/// END OF CONFIGURATION

var root = document.documentElement;

var state = 'none', svgRoot = null, stateTarget, stateOrigin, stateTf;

setupHandlers(root);

/**
 * Register handlers
 */
function setupHandlers(root){
	setAttributes(root, {
		"onmouseup" : "handleMouseUp(evt)",
		"onmousedown" : "handleMouseDown(evt)",
		"onmousemove" : "handleMouseMove(evt)",
		//"onmouseout" : "handleMouseUp(evt)", // Decomment this to stop the pan functionality when dragging out of the SVG element
	});

	if(navigator.userAgent.toLowerCase().indexOf('webkit') >= 0)
		window.addEventListener('mousewheel', handleMouseWheel, false); // Chrome/Safari
	else
		window.addEventListener('DOMMouseScroll', handleMouseWheel, false); // Others
}

/**
 * Retrieves the root element for SVG manipulation. The element is then cached into the svgRoot global variable.
 */
function getRoot(root) {
	if(svgRoot == null) {
		var r = root.getElementById("viewport") ? root.getElementById("viewport") : root.documentElement, t = r;

		while(t != root) {
			if(t.getAttribute("viewBox")) {
				setCTM(r, t.getCTM());

				t.removeAttribute("viewBox");
			}

			t = t.parentNode;
		}

		svgRoot = r;
	}

	return svgRoot;
}

/**
 * Instance an SVGPoint object with given event coordinates.
 */
function getEventPoint(evt) {
	var p = root.createSVGPoint();

	p.x = evt.clientX;
	p.y = evt.clientY;

	return p;
}

/**
 * Sets the current transform matrix of an element.
 */
function setCTM(element, matrix) {
	var s = "matrix(" + matrix.a + "," + matrix.b + "," + matrix.c + "," + matrix.d + "," + matrix.e + "," + matrix.f + ")";

	element.setAttribute("transform", s);
}

/**
 * Dumps a matrix to a string (useful for debug).
 */
function dumpMatrix(matrix) {
	var s = "[ " + matrix.a + ", " + matrix.c + ", " + matrix.e + "\n  " + matrix.b + ", " + matrix.d + ", " + matrix.f + "\n  0, 0, 1 ]";

	return s;
}

/**
 * Sets attributes of an element.
 */
function setAttributes(element, attributes){
	for (var i in attributes)
		element.setAttributeNS(null, i, attributes[i]);
}

/**
 * Handle mouse wheel event.
 */
function handleMouseWheel(evt) {
	if(!enableZoom)
		return;

	if(evt.preventDefault)
		evt.preventDefault();

	evt.returnValue = false;

	var svgDoc = evt.target.ownerDocument;

	var delta;

	if(evt.wheelDelta)
		delta = evt.wheelDelta / 360; // Chrome/Safari
	else
		delta = evt.detail / -9; // Mozilla

	var z = Math.pow(1 + zoomScale, delta);

	var g = getRoot(svgDoc);
	
	var p = getEventPoint(evt);

	p = p.matrixTransform(g.getCTM().inverse());

	// Compute new scale matrix in current mouse position
	var k = root.createSVGMatrix().translate(p.x, p.y).scale(z).translate(-p.x, -p.y);

        setCTM(g, g.getCTM().multiply(k));

	if(typeof(stateTf) == "undefined")
		stateTf = g.getCTM().inverse();

	stateTf = stateTf.multiply(k.inverse());
}

/**
 * Handle mouse move event.
 */
function handleMouseMove(evt) {
	if(evt.preventDefault)
		evt.preventDefault();

	evt.returnValue = false;

	var svgDoc = evt.target.ownerDocument;

	var g = getRoot(svgDoc);

	if(state == 'pan' && enablePan) {
		// Pan mode
		var p = getEventPoint(evt).matrixTransform(stateTf);

		setCTM(g, stateTf.inverse().translate(p.x - stateOrigin.x, p.y - stateOrigin.y));
	} else if(state == 'drag' && enableDrag) {
		// Drag mode
		var p = getEventPoint(evt).matrixTransform(g.getCTM().inverse());

		setCTM(stateTarget, root.createSVGMatrix().translate(p.x - stateOrigin.x, p.y - stateOrigin.y).multiply(g.getCTM().inverse()).multiply(stateTarget.getCTM()));

		stateOrigin = p;
	}
}

/**
 * Handle click event.
 */
function handleMouseDown(evt) {
	if(evt.preventDefault)
		evt.preventDefault();

	evt.returnValue = false;

	var svgDoc = evt.target.ownerDocument;

	var g = getRoot(svgDoc);

	if(
		evt.target.tagName == "svg"
		|| !enableDrag // Pan anyway when drag is disabled and the user clicked on an element
	) {
		// Pan mode
		state = 'pan';

		stateTf = g.getCTM().inverse();

		stateOrigin = getEventPoint(evt).matrixTransform(stateTf);
	} else {
		// Drag mode
		state = 'drag';

		stateTarget = evt.target;

		stateTf = g.getCTM().inverse();

		stateOrigin = getEventPoint(evt).matrixTransform(stateTf);
	}
}

/**
 * Handle mouse button release event.
 */
function handleMouseUp(evt) {
	if(evt.preventDefault)
		evt.preventDefault();

	evt.returnValue = false;

	var svgDoc = evt.target.ownerDocument;

	if(state == 'pan' || state == 'drag') {
		// Quit pan mode
		state = '';
	}
}
]]></script><g id="viewport" transform="scale(0.5,0.5) translate(0,0)"><g id="graph0" class="graph" transform="scale(1 1) rotate(0) translate(4 1605)">
<title>pprof_1</title>
<polygon fill="white" stroke="transparent" points="-4,4 -4,-1605 1064,-1605 1064,4 -4,4"/>
<g id="clust1" class="cluster">
<title>cluster_L</title>
<polygon fill="none" stroke="black" points="8,-1479 8,-1593 608,-1593 608,-1479 8,-1479"/>
</g>
<!-- File: pprof_1 -->
<g id="node1" class="node">
<title>File: pprof_1</title>
<g id="a_node1"><a xlink:title="pprof_1">
<polygon fill="#f8f8f8" stroke="black" points="599.5,-1585 16.5,-1585 16.5,-1487 599.5,-1487 599.5,-1585"/>
<text text-anchor="start" x="24.5" y="-1568.2" font-family="Times,serif" font-size="16.00">File: pprof_1</text>
<text text-anchor="start" x="24.5" y="-1550.2" font-family="Times,serif" font-size="16.00">Type: alloc_objects</text>
<text text-anchor="start" x="24.5" y="-1532.2" font-family="Times,serif" font-size="16.00">Time: Nov 30, 2020 at 1:05am (PST)</text>
<text text-anchor="start" x="24.5" y="-1514.2" font-family="Times,serif" font-size="16.00">Showing nodes accounting for 55024940, 99.10% of 55525871 total</text>
<text text-anchor="start" x="24.5" y="-1496.2" font-family="Times,serif" font-size="16.00">Dropped 87 nodes (cum &lt;= 277629)</text>
</a>
</g>
</g>
<!-- N1 -->
<g id="node1" class="node">
<title>N1</title>
<g id="a_node1"><a xlink:title="net/http.(*conn).serve (55480088)">
<polygon fill="#edd5d5" stroke="#b20000" points="732.5,-1558 617.5,-1558 617.5,-1514 732.5,-1514 732.5,-1558"/>
<text text-anchor="middle" x="675" y="-1547.6" font-family="Times,serif" font-size="8.00">http</text>
<text text-anchor="middle" x="675" y="-1538.6" font-family="Times,serif" font-size="8.00">(*conn)</text>
<text text-anchor="middle" x="675" y="-1529.6" font-family="Times,serif" font-size="8.00">serve</text>
<text text-anchor="middle" x="675" y="-1520.6" font-family="Times,serif" font-size="8.00">0 of 55480088 (99.92%)</text>
</a>
</g>
</g>
<!-- N11 -->
<g id="node11" class="node">
<title>N11</title>
<g id="a_node11"><a xlink:title="net/http.serverHandler.ServeHTTP (55375358)">
<polygon fill="#edd5d5" stroke="#b20000" points="732.5,-1436 617.5,-1436 617.5,-1392 732.5,-1392 732.5,-1436"/>
<text text-anchor="middle" x="675" y="-1425.6" font-family="Times,serif" font-size="8.00">http</text>
<text text-anchor="middle" x="675" y="-1416.6" font-family="Times,serif" font-size="8.00">serverHandler</text>
<text text-anchor="middle" x="675" y="-1407.6" font-family="Times,serif" font-size="8.00">ServeHTTP</text>
<text text-anchor="middle" x="675" y="-1398.6" font-family="Times,serif" font-size="8.00">0 of 55375358 (99.73%)</text>
</a>
</g>
</g>
<!-- N1&#45;&gt;N11 -->
<g id="edge11" class="edge">
<title>N1&#45;&gt;N11</title>
<g id="a_edge11"><a xlink:title="net/http.(*conn).serve &#45;&gt; net/http.serverHandler.ServeHTTP (55375358)">
<path fill="none" stroke="#b20000" stroke-width="5" d="M675,-1513.82C675,-1495.17 675,-1467.75 675,-1446.53"/>
<polygon fill="#b20000" stroke="#b20000" stroke-width="5" points="679.38,-1446.37 675,-1436.37 670.63,-1446.37 679.38,-1446.37"/>
</a>
</g>
<g id="a_edge11&#45;label"><a xlink:title="net/http.(*conn).serve &#45;&gt; net/http.serverHandler.ServeHTTP (55375358)">
<text text-anchor="middle" x="713.5" y="-1457.8" font-family="Times,serif" font-size="14.00"> 55375358</text>
</a>
</g>
</g>
<!-- N2 -->
<g id="node2" class="node">
<title>N2</title>
<g id="a_node2"><a xlink:title="main.handle (55342553)">
<polygon fill="#edd5d5" stroke="#b20000" points="790,-1151 560,-1151 560,-1059 790,-1059 790,-1151"/>
<text text-anchor="middle" x="675" y="-1131.8" font-family="Times,serif" font-size="19.00">main</text>
<text text-anchor="middle" x="675" y="-1110.8" font-family="Times,serif" font-size="19.00">handle</text>
<text text-anchor="middle" x="675" y="-1089.8" font-family="Times,serif" font-size="19.00">9096586 (16.38%)</text>
<text text-anchor="middle" x="675" y="-1068.8" font-family="Times,serif" font-size="19.00">of 55342553 (99.67%)</text>
</a>
</g>
</g>
<!-- NN2_0 -->
<g id="NN2_0" class="node">
<title>NN2_0</title>
<g id="a_NN2_0"><a xlink:title="4463342">
<polygon fill="#f8f8f8" stroke="black" points="522.5,-1008 467.5,-1008 463.5,-1004 463.5,-972 518.5,-972 522.5,-976 522.5,-1008"/>
<polyline fill="none" stroke="black" points="518.5,-1004 463.5,-1004 "/>
<polyline fill="none" stroke="black" points="518.5,-1004 518.5,-972 "/>
<polyline fill="none" stroke="black" points="518.5,-1004 522.5,-1008 "/>
<text text-anchor="middle" x="493" y="-988.1" font-family="Times,serif" font-size="8.00">16B..128B</text>
</a>
</g>
</g>
<!-- N2&#45;&gt;NN2_0 -->
<g id="edge1" class="edge">
<title>N2&#45;&gt;NN2_0</title>
<g id="a_edge1"><a xlink:title="4463342">
<path fill="none" stroke="black" d="M559.65,-1064.95C546.91,-1058.06 534.7,-1050.12 524,-1041 516.35,-1034.48 510,-1025.59 505.08,-1017.11"/>
<polygon fill="black" stroke="black" points="508.12,-1015.36 500.31,-1008.2 501.95,-1018.67 508.12,-1015.36"/>
</a>
</g>
<g id="a_edge1&#45;label"><a xlink:title="4463342">
<text text-anchor="middle" x="558" y="-1029.8" font-family="Times,serif" font-size="14.00"> 4463342</text>
</a>
</g>
</g>
<!-- NN2_1 -->
<g id="NN2_1" class="node">
<title>NN2_1</title>
<g id="a_NN2_1"><a xlink:title="1279184">
<polygon fill="#f8f8f8" stroke="black" points="618,-1008 554,-1008 550,-1004 550,-972 614,-972 618,-976 618,-1008"/>
<polyline fill="none" stroke="black" points="614,-1004 550,-1004 "/>
<polyline fill="none" stroke="black" points="614,-1004 614,-972 "/>
<polyline fill="none" stroke="black" points="614,-1004 618,-1008 "/>
<text text-anchor="middle" x="584" y="-988.1" font-family="Times,serif" font-size="8.00">88kB..112kB</text>
</a>
</g>
</g>
<!-- N2&#45;&gt;NN2_1 -->
<g id="edge2" class="edge">
<title>N2&#45;&gt;NN2_1</title>
<g id="a_edge2"><a xlink:title="1279184">
<path fill="none" stroke="black" d="M617.59,-1058.66C612.26,-1053.06 607.27,-1047.14 603,-1041 598.15,-1034.03 594.35,-1025.66 591.45,-1017.79"/>
<polygon fill="black" stroke="black" points="594.75,-1016.6 588.27,-1008.21 588.1,-1018.8 594.75,-1016.6"/>
</a>
</g>
<g id="a_edge2&#45;label"><a xlink:title="1279184">
<text text-anchor="middle" x="637" y="-1029.8" font-family="Times,serif" font-size="14.00"> 1279184</text>
</a>
</g>
</g>
<!-- NN2_2 -->
<g id="NN2_2" class="node">
<title>NN2_2</title>
<g id="a_NN2_2"><a xlink:title="966603">
<polygon fill="#f8f8f8" stroke="black" points="706.5,-1008 647.5,-1008 643.5,-1004 643.5,-972 702.5,-972 706.5,-976 706.5,-1008"/>
<polyline fill="none" stroke="black" points="702.5,-1004 643.5,-1004 "/>
<polyline fill="none" stroke="black" points="702.5,-1004 702.5,-972 "/>
<polyline fill="none" stroke="black" points="702.5,-1004 706.5,-1008 "/>
<text text-anchor="middle" x="675" y="-988.1" font-family="Times,serif" font-size="8.00">40kB..56kB</text>
</a>
</g>
</g>
<!-- N2&#45;&gt;NN2_2 -->
<g id="edge3" class="edge">
<title>N2&#45;&gt;NN2_2</title>
<g id="a_edge3"><a xlink:title="966603">
<path fill="none" stroke="black" d="M675,-1058.69C675,-1045.06 675,-1030.52 675,-1018.42"/>
<polygon fill="black" stroke="black" points="678.5,-1018.1 675,-1008.1 671.5,-1018.1 678.5,-1018.1"/>
</a>
</g>
<g id="a_edge3&#45;label"><a xlink:title="966603">
<text text-anchor="middle" x="704.5" y="-1029.8" font-family="Times,serif" font-size="14.00"> 966603</text>
</a>
</g>
</g>
<!-- NN2_3 -->
<g id="NN2_3" class="node">
<title>NN2_3</title>
<g id="a_NN2_3"><a xlink:title="961642">
<polygon fill="#f8f8f8" stroke="black" points="788.5,-1008 729.5,-1008 725.5,-1004 725.5,-972 784.5,-972 788.5,-976 788.5,-1008"/>
<polyline fill="none" stroke="black" points="784.5,-1004 725.5,-1004 "/>
<polyline fill="none" stroke="black" points="784.5,-1004 784.5,-972 "/>
<polyline fill="none" stroke="black" points="784.5,-1004 788.5,-1008 "/>
<text text-anchor="middle" x="757" y="-988.1" font-family="Times,serif" font-size="8.00">64kB..80kB</text>
</a>
</g>
</g>
<!-- N2&#45;&gt;NN2_3 -->
<g id="edge4" class="edge">
<title>N2&#45;&gt;NN2_3</title>
<g id="a_edge4"><a xlink:title="961642">
<path fill="none" stroke="black" d="M721.5,-1058.76C726.36,-1053.02 730.98,-1047.03 735,-1041 739.73,-1033.9 743.86,-1025.61 747.22,-1017.85"/>
<polygon fill="black" stroke="black" points="750.52,-1019.01 751.05,-1008.42 744.04,-1016.37 750.52,-1019.01"/>
</a>
</g>
<g id="a_edge4&#45;label"><a xlink:title="961642">
<text text-anchor="middle" x="773.5" y="-1029.8" font-family="Times,serif" font-size="14.00"> 961642</text>
</a>
</g>
</g>
<!-- N6 -->
<g id="node6" class="node">
<title>N6</title>
<g id="a_node6"><a xlink:title="fmt.Sprintf (46242894)">
<polygon fill="#edd6d5" stroke="#b20900" points="931.5,-935 730.5,-935 730.5,-855 931.5,-855 931.5,-935"/>
<text text-anchor="middle" x="831" y="-918.2" font-family="Times,serif" font-size="16.00">fmt</text>
<text text-anchor="middle" x="831" y="-900.2" font-family="Times,serif" font-size="16.00">Sprintf</text>
<text text-anchor="middle" x="831" y="-882.2" font-family="Times,serif" font-size="16.00">4534825 (8.17%)</text>
<text text-anchor="middle" x="831" y="-864.2" font-family="Times,serif" font-size="16.00">of 46242894 (83.28%)</text>
</a>
</g>
</g>
<!-- N2&#45;&gt;N6 -->
<g id="edge14" class="edge">
<title>N2&#45;&gt;N6</title>
<g id="a_edge14"><a xlink:title="main.handle &#45;&gt; fmt.Sprintf (46242894)">
<path fill="none" stroke="#b20900" stroke-width="5" d="M789.82,-1058.87C796.21,-1053.53 802.04,-1047.6 807,-1041 827.37,-1013.91 833.06,-975.89 833.83,-945.58"/>
<polygon fill="#b20900" stroke="#b20900" stroke-width="5" points="838.2,-945.24 833.91,-935.21 829.45,-945.18 838.2,-945.24"/>
</a>
</g>
<g id="a_edge14&#45;label"><a xlink:title="main.handle &#45;&gt; fmt.Sprintf (46242894)">
<text text-anchor="middle" x="870.5" y="-986.3" font-family="Times,serif" font-size="14.00"> 46242894</text>
</a>
</g>
</g>
<!-- N3 -->
<g id="node3" class="node">
<title>N3</title>
<g id="a_node3"><a xlink:title="reflect.packEface (21371976)">
<polygon fill="#eddbd5" stroke="#b22c00" points="1040,-173 788,-173 788,-87 1040,-87 1040,-173"/>
<text text-anchor="middle" x="914" y="-149.8" font-family="Times,serif" font-size="24.00">reflect</text>
<text text-anchor="middle" x="914" y="-123.8" font-family="Times,serif" font-size="24.00">packEface</text>
<text text-anchor="middle" x="914" y="-97.8" font-family="Times,serif" font-size="24.00">21371976 (38.49%)</text>
</a>
</g>
</g>
<!-- NN3_0 -->
<g id="NN3_0" class="node">
<title>NN3_0</title>
<g id="a_NN3_0"><a xlink:title="12124345">
<polygon fill="#f8f8f8" stroke="black" points="841,-36 791,-36 787,-32 787,0 837,0 841,-4 841,-36"/>
<polyline fill="none" stroke="black" points="837,-32 787,-32 "/>
<polyline fill="none" stroke="black" points="837,-32 837,0 "/>
<polyline fill="none" stroke="black" points="837,-32 841,-36 "/>
<text text-anchor="middle" x="814" y="-16.1" font-family="Times,serif" font-size="8.00">16B</text>
</a>
</g>
</g>
<!-- N3&#45;&gt;NN3_0 -->
<g id="edge5" class="edge">
<title>N3&#45;&gt;NN3_0</title>
<g id="a_edge5"><a xlink:title="12124345">
<path fill="none" stroke="black" d="M849.32,-86.7C843.34,-81.2 837.75,-75.28 833,-69 827.88,-62.23 823.99,-53.92 821.11,-46.04"/>
<polygon fill="black" stroke="black" points="824.4,-44.85 817.98,-36.42 817.74,-47.01 824.4,-44.85"/>
</a>
</g>
<g id="a_edge5&#45;label"><a xlink:title="12124345">
<text text-anchor="middle" x="871.5" y="-57.8" font-family="Times,serif" font-size="14.00"> 12124345</text>
</a>
</g>
</g>
<!-- NN3_1 -->
<g id="NN3_1" class="node">
<title>NN3_1</title>
<g id="a_NN3_1"><a xlink:title="4791047">
<polygon fill="#f8f8f8" stroke="black" points="941,-36 891,-36 887,-32 887,0 937,0 941,-4 941,-36"/>
<polyline fill="none" stroke="black" points="937,-32 887,-32 "/>
<polyline fill="none" stroke="black" points="937,-32 937,0 "/>
<polyline fill="none" stroke="black" points="937,-32 941,-36 "/>
<text text-anchor="middle" x="914" y="-16.1" font-family="Times,serif" font-size="8.00">80B</text>
</a>
</g>
</g>
<!-- N3&#45;&gt;NN3_1 -->
<g id="edge6" class="edge">
<title>N3&#45;&gt;NN3_1</title>
<g id="a_edge6"><a xlink:title="4791047">
<path fill="none" stroke="black" d="M914,-86.79C914,-73.2 914,-58.5 914,-46.28"/>
<polygon fill="black" stroke="black" points="917.5,-46.27 914,-36.27 910.5,-46.27 917.5,-46.27"/>
</a>
</g>
<g id="a_edge6&#45;label"><a xlink:title="4791047">
<text text-anchor="middle" x="948" y="-57.8" font-family="Times,serif" font-size="14.00"> 4791047</text>
</a>
</g>
</g>
<!-- NN3_2 -->
<g id="NN3_2" class="node">
<title>NN3_2</title>
<g id="a_NN3_2"><a xlink:title="4456584">
<polygon fill="#f8f8f8" stroke="black" points="1032,-36 982,-36 978,-32 978,0 1028,0 1032,-4 1032,-36"/>
<polyline fill="none" stroke="black" points="1028,-32 978,-32 "/>
<polyline fill="none" stroke="black" points="1028,-32 1028,0 "/>
<polyline fill="none" stroke="black" points="1028,-32 1032,-36 "/>
<text text-anchor="middle" x="1005" y="-16.1" font-family="Times,serif" font-size="8.00">32B</text>
</a>
</g>
</g>
<!-- N3&#45;&gt;NN3_2 -->
<g id="edge7" class="edge">
<title>N3&#45;&gt;NN3_2</title>
<g id="a_edge7"><a xlink:title="4456584">
<path fill="none" stroke="black" d="M967.68,-86.69C973.23,-81.08 978.48,-75.14 983,-69 988.2,-61.94 992.51,-53.46 995.9,-45.51"/>
<polygon fill="black" stroke="black" points="999.16,-46.79 999.57,-36.2 992.65,-44.22 999.16,-46.79"/>
</a>
</g>
<g id="a_edge7&#45;label"><a xlink:title="4456584">
<text text-anchor="middle" x="1026" y="-57.8" font-family="Times,serif" font-size="14.00"> 4456584</text>
</a>
</g>
</g>
<!-- N4 -->
<g id="node4" class="node">
<title>N4</title>
<g id="a_node4"><a xlink:title="fmt.(*pp).printValue (41553281)">
<polygon fill="#edd7d5" stroke="#b20e00" points="971.5,-541 856.5,-541 856.5,-497 971.5,-497 971.5,-541"/>
<text text-anchor="middle" x="914" y="-530.6" font-family="Times,serif" font-size="8.00">fmt</text>
<text text-anchor="middle" x="914" y="-521.6" font-family="Times,serif" font-size="8.00">(*pp)</text>
<text text-anchor="middle" x="914" y="-512.6" font-family="Times,serif" font-size="8.00">printValue</text>
<text text-anchor="middle" x="914" y="-503.6" font-family="Times,serif" font-size="8.00">0 of 41553281 (74.84%)</text>
</a>
</g>
</g>
<!-- N12 -->
<g id="node12" class="node">
<title>N12</title>
<g id="a_node12"><a xlink:title="reflect.(*rtype).Field (20021553)">
<polygon fill="#eddbd5" stroke="#b22f00" points="821.5,-431 706.5,-431 706.5,-387 821.5,-387 821.5,-431"/>
<text text-anchor="middle" x="764" y="-420.6" font-family="Times,serif" font-size="8.00">reflect</text>
<text text-anchor="middle" x="764" y="-411.6" font-family="Times,serif" font-size="8.00">(*rtype)</text>
<text text-anchor="middle" x="764" y="-402.6" font-family="Times,serif" font-size="8.00">Field</text>
<text text-anchor="middle" x="764" y="-393.6" font-family="Times,serif" font-size="8.00">0 of 20021553 (36.06%)</text>
</a>
</g>
</g>
<!-- N4&#45;&gt;N12 -->
<g id="edge21" class="edge">
<title>N4&#45;&gt;N12</title>
<g id="a_edge21"><a xlink:title="fmt.(*pp).printValue &#45;&gt; reflect.(*rtype).Field (20021553)">
<path fill="none" stroke="#b22f00" stroke-width="2" d="M863.25,-496.81C852.87,-491.6 842.29,-485.59 833,-479 816.83,-467.53 801.02,-452.12 788.63,-438.78"/>
<polygon fill="#b22f00" stroke="#b22f00" stroke-width="2" points="791.06,-436.26 781.75,-431.21 785.88,-440.96 791.06,-436.26"/>
</a>
</g>
<g id="a_edge21&#45;label"><a xlink:title="fmt.(*pp).printValue &#45;&gt; reflect.(*rtype).Field (20021553)">
<text text-anchor="middle" x="871.5" y="-460.3" font-family="Times,serif" font-size="14.00"> 20021553</text>
</a>
</g>
</g>
<!-- N13 -->
<g id="node13" class="node">
<title>N13</title>
<g id="a_node13"><a xlink:title="reflect.Value.Interface (21371976)">
<polygon fill="#eddbd5" stroke="#b22c00" points="971.5,-431 856.5,-431 856.5,-387 971.5,-387 971.5,-431"/>
<text text-anchor="middle" x="914" y="-420.6" font-family="Times,serif" font-size="8.00">reflect</text>
<text text-anchor="middle" x="914" y="-411.6" font-family="Times,serif" font-size="8.00">Value</text>
<text text-anchor="middle" x="914" y="-402.6" font-family="Times,serif" font-size="8.00">Interface</text>
<text text-anchor="middle" x="914" y="-393.6" font-family="Times,serif" font-size="8.00">0 of 21371976 (38.49%)</text>
</a>
</g>
</g>
<!-- N4&#45;&gt;N13 -->
<g id="edge18" class="edge">
<title>N4&#45;&gt;N13</title>
<g id="a_edge18"><a xlink:title="fmt.(*pp).printValue &#45;&gt; reflect.Value.Interface (21371976)">
<path fill="none" stroke="#b22c00" stroke-width="2" d="M914,-496.92C914,-481.09 914,-459.15 914,-441.27"/>
<polygon fill="#b22c00" stroke="#b22c00" stroke-width="2" points="917.5,-441.03 914,-431.03 910.5,-441.03 917.5,-441.03"/>
</a>
</g>
<g id="a_edge18&#45;label"><a xlink:title="fmt.(*pp).printValue &#45;&gt; reflect.Value.Interface (21371976)">
<text text-anchor="middle" x="952.5" y="-467.8" font-family="Times,serif" font-size="14.00"> 21371976</text>
<text text-anchor="middle" x="952.5" y="-452.8" font-family="Times,serif" font-size="14.00"> (inline)</text>
</a>
</g>
</g>
<!-- N5 -->
<g id="node5" class="node">
<title>N5</title>
<g id="a_node5"><a xlink:title="reflect.(*structType).Field (20021553)">
<polygon fill="#eddbd5" stroke="#b22f00" points="838,-336 586,-336 586,-224 838,-224 838,-336"/>
<text text-anchor="middle" x="712" y="-312.8" font-family="Times,serif" font-size="24.00">reflect</text>
<text text-anchor="middle" x="712" y="-286.8" font-family="Times,serif" font-size="24.00">(*structType)</text>
<text text-anchor="middle" x="712" y="-260.8" font-family="Times,serif" font-size="24.00">Field</text>
<text text-anchor="middle" x="712" y="-234.8" font-family="Times,serif" font-size="24.00">20021553 (36.06%)</text>
</a>
</g>
</g>
<!-- NN5_0 -->
<g id="NN5_0" class="node">
<title>NN5_0</title>
<g id="a_NN5_0"><a xlink:title="20021553">
<polygon fill="#f8f8f8" stroke="black" points="739,-148 689,-148 685,-144 685,-112 735,-112 739,-116 739,-148"/>
<polyline fill="none" stroke="black" points="735,-144 685,-144 "/>
<polyline fill="none" stroke="black" points="735,-144 735,-112 "/>
<polyline fill="none" stroke="black" points="735,-144 739,-148 "/>
<text text-anchor="middle" x="712" y="-128.1" font-family="Times,serif" font-size="8.00">16B</text>
</a>
</g>
</g>
<!-- N5&#45;&gt;NN5_0 -->
<g id="edge8" class="edge">
<title>N5&#45;&gt;NN5_0</title>
<g id="a_edge8"><a xlink:title="20021553">
<path fill="none" stroke="black" d="M712,-223.89C712,-201.6 712,-176.86 712,-158.51"/>
<polygon fill="black" stroke="black" points="715.5,-158.26 712,-148.26 708.5,-158.26 715.5,-158.26"/>
</a>
</g>
<g id="a_edge8&#45;label"><a xlink:title="20021553">
<text text-anchor="middle" x="750.5" y="-194.8" font-family="Times,serif" font-size="14.00"> 20021553</text>
</a>
</g>
</g>
<!-- NN6_0 -->
<g id="NN6_0" class="node">
<title>NN6_0</title>
<g id="a_NN6_0"><a xlink:title="4534825">
<polygon fill="#f8f8f8" stroke="black" points="858,-804 808,-804 804,-800 804,-768 854,-768 858,-772 858,-804"/>
<polyline fill="none" stroke="black" points="854,-800 804,-800 "/>
<polyline fill="none" stroke="black" points="854,-800 854,-768 "/>
<polyline fill="none" stroke="black" points="854,-800 858,-804 "/>
<text text-anchor="middle" x="831" y="-784.1" font-family="Times,serif" font-size="8.00">128B</text>
</a>
</g>
</g>
<!-- N6&#45;&gt;NN6_0 -->
<g id="edge9" class="edge">
<title>N6&#45;&gt;NN6_0</title>
<g id="a_edge9"><a xlink:title="4534825">
<path fill="none" stroke="black" d="M831,-854.76C831,-841.29 831,-826.52 831,-814.22"/>
<polygon fill="black" stroke="black" points="834.5,-814.14 831,-804.14 827.5,-814.14 834.5,-814.14"/>
</a>
</g>
<g id="a_edge9&#45;label"><a xlink:title="4534825">
<text text-anchor="middle" x="865" y="-825.8" font-family="Times,serif" font-size="14.00"> 4534825</text>
</a>
</g>
</g>
<!-- N7 -->
<g id="node7" class="node">
<title>N7</title>
<g id="a_node7"><a xlink:title="fmt.(*pp).doPrintf (41553281)">
<polygon fill="#edd7d5" stroke="#b20e00" points="971.5,-731 856.5,-731 856.5,-687 971.5,-687 971.5,-731"/>
<text text-anchor="middle" x="914" y="-720.6" font-family="Times,serif" font-size="8.00">fmt</text>
<text text-anchor="middle" x="914" y="-711.6" font-family="Times,serif" font-size="8.00">(*pp)</text>
<text text-anchor="middle" x="914" y="-702.6" font-family="Times,serif" font-size="8.00">doPrintf</text>
<text text-anchor="middle" x="914" y="-693.6" font-family="Times,serif" font-size="8.00">0 of 41553281 (74.84%)</text>
</a>
</g>
</g>
<!-- N6&#45;&gt;N7 -->
<g id="edge17" class="edge">
<title>N6&#45;&gt;N7</title>
<g id="a_edge17"><a xlink:title="fmt.Sprintf &#45;&gt; fmt.(*pp).doPrintf (41553281)">
<path fill="none" stroke="#b20e00" stroke-width="4" d="M886.94,-854.91C892.01,-849.41 896.53,-843.43 900,-837 916,-807.36 917.95,-768.2 916.88,-741.24"/>
<polygon fill="#b20e00" stroke="#b20e00" stroke-width="4" points="920.37,-740.99 916.32,-731.2 913.38,-741.38 920.37,-740.99"/>
</a>
</g>
<g id="a_edge17&#45;label"><a xlink:title="fmt.Sprintf &#45;&gt; fmt.(*pp).doPrintf (41553281)">
<text text-anchor="middle" x="955.5" y="-782.3" font-family="Times,serif" font-size="14.00"> 41553281</text>
</a>
</g>
</g>
<!-- N8 -->
<g id="node8" class="node">
<title>N8</title>
<g id="a_node8"><a xlink:title="fmt.(*pp).printArg (41553281)">
<polygon fill="#edd7d5" stroke="#b20e00" points="971.5,-636 856.5,-636 856.5,-592 971.5,-592 971.5,-636"/>
<text text-anchor="middle" x="914" y="-625.6" font-family="Times,serif" font-size="8.00">fmt</text>
<text text-anchor="middle" x="914" y="-616.6" font-family="Times,serif" font-size="8.00">(*pp)</text>
<text text-anchor="middle" x="914" y="-607.6" font-family="Times,serif" font-size="8.00">printArg</text>
<text text-anchor="middle" x="914" y="-598.6" font-family="Times,serif" font-size="8.00">0 of 41553281 (74.84%)</text>
</a>
</g>
</g>
<!-- N7&#45;&gt;N8 -->
<g id="edge15" class="edge">
<title>N7&#45;&gt;N8</title>
<g id="a_edge15"><a xlink:title="fmt.(*pp).doPrintf &#45;&gt; fmt.(*pp).printArg (41553281)">
<path fill="none" stroke="#b20e00" stroke-width="4" d="M914,-686.9C914,-674.89 914,-659.62 914,-646.24"/>
<polygon fill="#b20e00" stroke="#b20e00" stroke-width="4" points="917.5,-646.02 914,-636.02 910.5,-646.02 917.5,-646.02"/>
</a>
</g>
<g id="a_edge15&#45;label"><a xlink:title="fmt.(*pp).doPrintf &#45;&gt; fmt.(*pp).printArg (41553281)">
<text text-anchor="middle" x="952.5" y="-657.8" font-family="Times,serif" font-size="14.00"> 41553281</text>
</a>
</g>
</g>
<!-- N8&#45;&gt;N4 -->
<g id="edge16" class="edge">
<title>N8&#45;&gt;N4</title>
<g id="a_edge16"><a xlink:title="fmt.(*pp).printArg &#45;&gt; fmt.(*pp).printValue (41553281)">
<path fill="none" stroke="#b20e00" stroke-width="4" d="M914,-591.9C914,-579.89 914,-564.62 914,-551.24"/>
<polygon fill="#b20e00" stroke="#b20e00" stroke-width="4" points="917.5,-551.02 914,-541.02 910.5,-551.02 917.5,-551.02"/>
</a>
</g>
<g id="a_edge16&#45;label"><a xlink:title="fmt.(*pp).printArg &#45;&gt; fmt.(*pp).printValue (41553281)">
<text text-anchor="middle" x="952.5" y="-562.8" font-family="Times,serif" font-size="14.00"> 41553281</text>
</a>
</g>
</g>
<!-- N9 -->
<g id="node9" class="node">
<title>N9</title>
<g id="a_node9"><a xlink:title="net/http.(*ServeMux).ServeHTTP (55375358)">
<polygon fill="#edd5d5" stroke="#b20000" points="732.5,-1341 617.5,-1341 617.5,-1297 732.5,-1297 732.5,-1341"/>
<text text-anchor="middle" x="675" y="-1330.6" font-family="Times,serif" font-size="8.00">http</text>
<text text-anchor="middle" x="675" y="-1321.6" font-family="Times,serif" font-size="8.00">(*ServeMux)</text>
<text text-anchor="middle" x="675" y="-1312.6" font-family="Times,serif" font-size="8.00">ServeHTTP</text>
<text text-anchor="middle" x="675" y="-1303.6" font-family="Times,serif" font-size="8.00">0 of 55375358 (99.73%)</text>
</a>
</g>
</g>
<!-- N10 -->
<g id="node10" class="node">
<title>N10</title>
<g id="a_node10"><a xlink:title="net/http.HandlerFunc.ServeHTTP (55375358)">
<polygon fill="#edd5d5" stroke="#b20000" points="732.5,-1246 617.5,-1246 617.5,-1202 732.5,-1202 732.5,-1246"/>
<text text-anchor="middle" x="675" y="-1235.6" font-family="Times,serif" font-size="8.00">http</text>
<text text-anchor="middle" x="675" y="-1226.6" font-family="Times,serif" font-size="8.00">HandlerFunc</text>
<text text-anchor="middle" x="675" y="-1217.6" font-family="Times,serif" font-size="8.00">ServeHTTP</text>
<text text-anchor="middle" x="675" y="-1208.6" font-family="Times,serif" font-size="8.00">0 of 55375358 (99.73%)</text>
</a>
</g>
</g>
<!-- N9&#45;&gt;N10 -->
<g id="edge10" class="edge">
<title>N9&#45;&gt;N10</title>
<g id="a_edge10"><a xlink:title="net/http.(*ServeMux).ServeHTTP &#45;&gt; net/http.HandlerFunc.ServeHTTP (55375358)">
<path fill="none" stroke="#b20000" stroke-width="5" d="M675,-1296.9C675,-1284.89 675,-1269.62 675,-1256.24"/>
<polygon fill="#b20000" stroke="#b20000" stroke-width="5" points="679.38,-1256.02 675,-1246.02 670.63,-1256.02 679.38,-1256.02"/>
</a>
</g>
<g id="a_edge10&#45;label"><a xlink:title="net/http.(*ServeMux).ServeHTTP &#45;&gt; net/http.HandlerFunc.ServeHTTP (55375358)">
<text text-anchor="middle" x="713.5" y="-1267.8" font-family="Times,serif" font-size="14.00"> 55375358</text>
</a>
</g>
</g>
<!-- N10&#45;&gt;N2 -->
<g id="edge13" class="edge">
<title>N10&#45;&gt;N2</title>
<g id="a_edge13"><a xlink:title="net/http.HandlerFunc.ServeHTTP &#45;&gt; main.handle (55342553)">
<path fill="none" stroke="#b20000" stroke-width="5" d="M675,-1201.81C675,-1190.47 675,-1175.92 675,-1161.6"/>
<polygon fill="#b20000" stroke="#b20000" stroke-width="5" points="679.38,-1161.27 675,-1151.27 670.63,-1161.27 679.38,-1161.27"/>
</a>
</g>
<g id="a_edge13&#45;label"><a xlink:title="net/http.HandlerFunc.ServeHTTP &#45;&gt; main.handle (55342553)">
<text text-anchor="middle" x="713.5" y="-1172.8" font-family="Times,serif" font-size="14.00"> 55342553</text>
</a>
</g>
</g>
<!-- N11&#45;&gt;N9 -->
<g id="edge12" class="edge">
<title>N11&#45;&gt;N9</title>
<g id="a_edge12"><a xlink:title="net/http.serverHandler.ServeHTTP &#45;&gt; net/http.(*ServeMux).ServeHTTP (55375358)">
<path fill="none" stroke="#b20000" stroke-width="5" d="M675,-1391.9C675,-1379.89 675,-1364.62 675,-1351.24"/>
<polygon fill="#b20000" stroke="#b20000" stroke-width="5" points="679.38,-1351.02 675,-1341.02 670.63,-1351.02 679.38,-1351.02"/>
</a>
</g>
<g id="a_edge12&#45;label"><a xlink:title="net/http.serverHandler.ServeHTTP &#45;&gt; net/http.(*ServeMux).ServeHTTP (55375358)">
<text text-anchor="middle" x="713.5" y="-1362.8" font-family="Times,serif" font-size="14.00"> 55375358</text>
</a>
</g>
</g>
<!-- N12&#45;&gt;N5 -->
<g id="edge22" class="edge">
<title>N12&#45;&gt;N5</title>
<g id="a_edge22"><a xlink:title="reflect.(*rtype).Field &#45;&gt; reflect.(*structType).Field (20021553)">
<path fill="none" stroke="#b22f00" stroke-width="2" d="M755.3,-386.74C750.58,-375.22 744.47,-360.31 738.34,-345.33"/>
<polygon fill="#b22f00" stroke="#b22f00" stroke-width="2" points="741.56,-343.96 734.53,-336.03 735.08,-346.61 741.56,-343.96"/>
</a>
</g>
<g id="a_edge22&#45;label"><a xlink:title="reflect.(*rtype).Field &#45;&gt; reflect.(*structType).Field (20021553)">
<text text-anchor="middle" x="786.5" y="-357.8" font-family="Times,serif" font-size="14.00"> 20021553</text>
</a>
</g>
</g>
<!-- N14 -->
<g id="node14" class="node">
<title>N14</title>
<g id="a_node14"><a xlink:title="reflect.valueInterface (21371976)">
<polygon fill="#eddbd5" stroke="#b22c00" points="971.5,-298 856.5,-298 856.5,-262 971.5,-262 971.5,-298"/>
<text text-anchor="middle" x="914" y="-287.1" font-family="Times,serif" font-size="8.00">reflect</text>
<text text-anchor="middle" x="914" y="-278.1" font-family="Times,serif" font-size="8.00">valueInterface</text>
<text text-anchor="middle" x="914" y="-269.1" font-family="Times,serif" font-size="8.00">0 of 21371976 (38.49%)</text>
</a>
</g>
</g>
<!-- N13&#45;&gt;N14 -->
<g id="edge19" class="edge">
<title>N13&#45;&gt;N14</title>
<g id="a_edge19"><a xlink:title="reflect.Value.Interface &#45;&gt; reflect.valueInterface (21371976)">
<path fill="none" stroke="#b22c00" stroke-width="2" d="M914,-386.74C914,-365.19 914,-331.75 914,-308.26"/>
<polygon fill="#b22c00" stroke="#b22c00" stroke-width="2" points="917.5,-308.24 914,-298.24 910.5,-308.24 917.5,-308.24"/>
</a>
</g>
<g id="a_edge19&#45;label"><a xlink:title="reflect.Value.Interface &#45;&gt; reflect.valueInterface (21371976)">
<text text-anchor="middle" x="952.5" y="-357.8" font-family="Times,serif" font-size="14.00"> 21371976</text>
</a>
</g>
</g>
<!-- N14&#45;&gt;N3 -->
<g id="edge20" class="edge">
<title>N14&#45;&gt;N3</title>
<g id="a_edge20"><a xlink:title="reflect.valueInterface &#45;&gt; reflect.packEface (21371976)">
<path fill="none" stroke="#b22c00" stroke-width="2" d="M914,-261.73C914,-242.6 914,-210.82 914,-183.38"/>
<polygon fill="#b22c00" stroke="#b22c00" stroke-width="2" points="917.5,-183.11 914,-173.11 910.5,-183.11 917.5,-183.11"/>
</a>
</g>
<g id="a_edge20&#45;label"><a xlink:title="reflect.valueInterface &#45;&gt; reflect.packEface (21371976)">
<text text-anchor="middle" x="952.5" y="-194.8" font-family="Times,serif" font-size="14.00"> 21371976</text>
</a>
</g>
</g>
</g>
</g></svg>
